<mxfile host="app.diagrams.net" modified="2023-04-23T13:05:32.030Z" agent="Mozilla/5.0 (Windows NT 10.0; Win64; x64) AppleWebKit/537.36 (KHTML, like Gecko) Chrome/112.0.0.0 Safari/537.36" etag="-NMwfjIH5wi8aIgCzxAi" version="21.2.1" type="github">
  <diagram name="Page-1" id="gzBwzpMSBVfqFmjMRgq_">
    <mxGraphModel dx="1050" dy="665" grid="1" gridSize="10" guides="1" tooltips="1" connect="1" arrows="1" fold="1" page="1" pageScale="1" pageWidth="827" pageHeight="1169" math="0" shadow="0">
      <root>
        <mxCell id="0" />
        <mxCell id="1" parent="0" />
        <mxCell id="s2OsbMv8eEPXfgkgAl__-15" value="" style="edgeStyle=orthogonalEdgeStyle;rounded=0;orthogonalLoop=1;jettySize=auto;html=1;" edge="1" parent="1" source="x_UqHdZrBDTHnCHfq9N3-1" target="s2OsbMv8eEPXfgkgAl__-14">
          <mxGeometry relative="1" as="geometry" />
        </mxCell>
        <mxCell id="x_UqHdZrBDTHnCHfq9N3-1" value="&lt;font style=&quot;font-size: 24px;&quot; face=&quot;Verdana&quot;&gt;Start&lt;/font&gt;" style="ellipse;whiteSpace=wrap;html=1;fillColor=#f8cecc;strokeColor=#b85450;" parent="1" vertex="1">
          <mxGeometry x="250" y="50" width="120" height="80" as="geometry" />
        </mxCell>
        <mxCell id="s2OsbMv8eEPXfgkgAl__-11" value="" style="edgeStyle=orthogonalEdgeStyle;rounded=0;orthogonalLoop=1;jettySize=auto;html=1;" edge="1" parent="1" source="s2OsbMv8eEPXfgkgAl__-4" target="x_UqHdZrBDTHnCHfq9N3-1">
          <mxGeometry relative="1" as="geometry" />
        </mxCell>
        <mxCell id="s2OsbMv8eEPXfgkgAl__-4" value="" style="shape=curlyBracket;whiteSpace=wrap;html=1;rounded=1;labelPosition=left;verticalLabelPosition=middle;align=right;verticalAlign=middle;" vertex="1" parent="1">
          <mxGeometry x="480" y="50" width="20" height="80" as="geometry" />
        </mxCell>
        <mxCell id="s2OsbMv8eEPXfgkgAl__-6" value="&lt;font style=&quot;font-size: 14px;&quot; face=&quot;Verdana&quot;&gt;int _printf(const char *format, ...);&lt;/font&gt;" style="text;html=1;align=center;verticalAlign=middle;resizable=0;points=[];autosize=1;strokeColor=none;fillColor=none;" vertex="1" parent="1">
          <mxGeometry x="500" y="75" width="270" height="30" as="geometry" />
        </mxCell>
        <mxCell id="s2OsbMv8eEPXfgkgAl__-17" value="" style="edgeStyle=orthogonalEdgeStyle;rounded=0;orthogonalLoop=1;jettySize=auto;html=1;" edge="1" parent="1" source="s2OsbMv8eEPXfgkgAl__-14" target="s2OsbMv8eEPXfgkgAl__-16">
          <mxGeometry relative="1" as="geometry" />
        </mxCell>
        <mxCell id="s2OsbMv8eEPXfgkgAl__-14" value="&lt;font style=&quot;font-size: 14px;&quot; face=&quot;Verdana&quot;&gt;Input:&amp;nbsp;const char *format, ...&lt;/font&gt;" style="shape=parallelogram;perimeter=parallelogramPerimeter;whiteSpace=wrap;html=1;fixedSize=1;fillColor=#e1d5e7;strokeColor=#9673a6;" vertex="1" parent="1">
          <mxGeometry x="220" y="180" width="180" height="70" as="geometry" />
        </mxCell>
        <mxCell id="s2OsbMv8eEPXfgkgAl__-16" value="&lt;font size=&quot;3&quot; face=&quot;Verdana&quot;&gt;Initialize const char *format equal to n,&lt;br&gt;Initialize&amp;nbsp;&lt;br&gt;&lt;/font&gt;" style="rounded=0;whiteSpace=wrap;html=1;fillColor=#dae8fc;strokeColor=#6c8ebf;" vertex="1" parent="1">
          <mxGeometry x="215" y="290" width="190" height="80" as="geometry" />
        </mxCell>
      </root>
    </mxGraphModel>
  </diagram>
</mxfile>
